<?xml version="1.0" encoding="UTF-8" standalone="no"?>
<svg
   xmlns:dc="http://purl.org/dc/elements/1.1/"
   xmlns:cc="http://creativecommons.org/ns#"
   xmlns:rdf="http://www.w3.org/1999/02/22-rdf-syntax-ns#"
   xmlns:svg="http://www.w3.org/2000/svg"
   xmlns="http://www.w3.org/2000/svg"
   xmlns:sodipodi="http://sodipodi.sourceforge.net/DTD/sodipodi-0.dtd"
   xmlns:inkscape="http://www.inkscape.org/namespaces/inkscape"
   aria-hidden="true"
   focusable="false"
   data-prefix="fas"
   data-icon="file-plus"
   role="img"
   viewBox="0 0 512 512"
   class="svg-inline--fa fa-file-plus fa-w-12 fa-9x"
   version="1.1"
   id="svg4"
   sodipodi:docname="file-plus.svg"
   inkscape:version="0.92.4 5da689c313, 2019-01-14"
   width="512"
   height="512">
  <metadata
     id="metadata10">
    <rdf:RDF>
      <cc:Work
         rdf:about="">
        <dc:format>image/svg+xml</dc:format>
        <dc:type
           rdf:resource="http://purl.org/dc/dcmitype/StillImage" />
        <dc:title></dc:title>
      </cc:Work>
    </rdf:RDF>
  </metadata>
  <defs
     id="defs8" />
  <sodipodi:namedview
     pagecolor="#ffffff"
     bordercolor="#666666"
     borderopacity="1"
     objecttolerance="10"
     gridtolerance="10"
     guidetolerance="10"
     inkscape:pageopacity="0"
     inkscape:pageshadow="2"
     inkscape:window-width="1920"
     inkscape:window-height="1119"
     id="namedview6"
     showgrid="false"
     inkscape:zoom="0.4609375"
     inkscape:cx="-29.288136"
     inkscape:cy="238.64407"
     inkscape:window-x="0"
     inkscape:window-y="0"
     inkscape:window-maximized="1"
     inkscape:current-layer="svg4" />
  <path
     d="M 448,121.9 V 128 H 320 V 0 h 6.1 c 6.4,0 12.5,2.5 17,7 l 97.9,98 c 4.5,4.5 7,10.6 7,16.9 z M 312,160 h 136 v 328 c 0,13.3 -10.7,24 -24,24 H 88 C 74.7,512 64,501.3 64,488 V 24 C 64,10.7 74.7,0 88,0 h 200 v 136 c 0,13.2 10.8,24 24,24 z m 48,140 c 0,-6.6 -5.4,-12 -12,-12 h -60 v -60 c 0,-6.6 -5.4,-12 -12,-12 h -40 c -6.6,0 -12,5.4 -12,12 v 60 h -60 c -6.6,0 -12,5.4 -12,12 v 40 c 0,6.6 5.4,12 12,12 h 60 v 60 c 0,6.6 5.4,12 12,12 h 40 c 6.6,0 12,-5.4 12,-12 v -60 h 60 c 6.6,0 12,-5.4 12,-12 z"
     class=""
     id="path2"
     style="fill:#006600"
     inkscape:connector-curvature="0" />
</svg>
