<?xml version="1.0" encoding="UTF-8" standalone="no"?>
<svg
   xmlns:dc="http://purl.org/dc/elements/1.1/"
   xmlns:cc="http://creativecommons.org/ns#"
   xmlns:rdf="http://www.w3.org/1999/02/22-rdf-syntax-ns#"
   xmlns:svg="http://www.w3.org/2000/svg"
   xmlns="http://www.w3.org/2000/svg"
   xmlns:sodipodi="http://sodipodi.sourceforge.net/DTD/sodipodi-0.dtd"
   xmlns:inkscape="http://www.inkscape.org/namespaces/inkscape"
   aria-hidden="true"
   focusable="false"
   data-prefix="fas"
   data-icon="copy"
   role="img"
   viewBox="0 0 512 512"
   class="svg-inline--fa fa-copy fa-w-14 fa-9x"
   version="1.1"
   id="svg855"
   sodipodi:docname="copy.svg"
   width="512"
   height="512"
   inkscape:version="0.92.4 5da689c313, 2019-01-14"
   inkscape:export-filename="/home/jat/Documents/data/2019-12-10_tkinter_tutorial/copy.png"
   inkscape:export-xdpi="2.8099999"
   inkscape:export-ydpi="2.8099999">
  <metadata
     id="metadata861">
    <rdf:RDF>
      <cc:Work
         rdf:about="">
        <dc:format>image/svg+xml</dc:format>
        <dc:type
           rdf:resource="http://purl.org/dc/dcmitype/StillImage" />
        <dc:title />
      </cc:Work>
    </rdf:RDF>
  </metadata>
  <defs
     id="defs859" />
  <sodipodi:namedview
     pagecolor="#ffffff"
     bordercolor="#666666"
     borderopacity="1"
     objecttolerance="10"
     gridtolerance="10"
     guidetolerance="10"
     inkscape:pageopacity="0"
     inkscape:pageshadow="2"
     inkscape:window-width="1202"
     inkscape:window-height="753"
     id="namedview857"
     showgrid="false"
     inkscape:zoom="1.1953125"
     inkscape:cx="256"
     inkscape:cy="262.98972"
     inkscape:window-x="2214"
     inkscape:window-y="271"
     inkscape:window-maximized="0"
     inkscape:current-layer="svg855" />
  <path
     d="m 352,448 v 40 c 0,13.255 -10.745,24 -24,24 H 56 C 42.745,512 32,501.255 32,488 V 120 C 32,106.745 42.745,96 56,96 h 72 v 296 c 0,30.879 25.121,56 56,56 z m 0,-344 V 0 H 184 c -13.255,0 -24,10.745 -24,24 v 368 c 0,13.255 10.745,24 24,24 h 272 c 13.255,0 24,-10.745 24,-24 V 128 H 376 c -13.2,0 -24,-10.8 -24,-24 z M 472.971,72.971 407.029,7.029 A 24,24 0 0 0 390.059,0 H 384 v 96 h 96 v -6.059 a 24,24 0 0 0 -7.029,-16.97 z"
     class=""
     id="path853"
     inkscape:connector-curvature="0"
     style="fill:#000000" />
</svg>
