<?xml version="1.0" encoding="UTF-8" standalone="no"?>
<svg
   xmlns:dc="http://purl.org/dc/elements/1.1/"
   xmlns:cc="http://creativecommons.org/ns#"
   xmlns:rdf="http://www.w3.org/1999/02/22-rdf-syntax-ns#"
   xmlns:svg="http://www.w3.org/2000/svg"
   xmlns="http://www.w3.org/2000/svg"
   xmlns:sodipodi="http://sodipodi.sourceforge.net/DTD/sodipodi-0.dtd"
   xmlns:inkscape="http://www.inkscape.org/namespaces/inkscape"
   aria-hidden="true"
   focusable="false"
   data-prefix="fas"
   data-icon="pause"
   role="img"
   viewBox="0 0 512 512"
   class="svg-inline--fa fa-pause fa-w-14 fa-9x"
   version="1.1"
   id="svg4"
   sodipodi:docname="pause.svg"
   width="512"
   height="512"
   inkscape:export-filename="/home/jat/git_repos/NexusMicroscopyLIMS/mdcs/nexusLIMS/nexusLIMS/db/pause.png"
   inkscape:export-xdpi="2.8099999"
   inkscape:export-ydpi="2.8099999"
   inkscape:version="0.92.4 5da689c313, 2019-01-14">
  <metadata
     id="metadata10">
    <rdf:RDF>
      <cc:Work
         rdf:about="">
        <dc:format>image/svg+xml</dc:format>
        <dc:type
           rdf:resource="http://purl.org/dc/dcmitype/StillImage" />
        <dc:title></dc:title>
      </cc:Work>
    </rdf:RDF>
  </metadata>
  <defs
     id="defs8" />
  <sodipodi:namedview
     pagecolor="#ffffff"
     bordercolor="#666666"
     borderopacity="1"
     objecttolerance="10"
     gridtolerance="10"
     guidetolerance="10"
     inkscape:pageopacity="0"
     inkscape:pageshadow="2"
     inkscape:window-width="1920"
     inkscape:window-height="1119"
     id="namedview6"
     showgrid="false"
     inkscape:zoom="0.4609375"
     inkscape:cx="-196.88136"
     inkscape:cy="238.64407"
     inkscape:window-x="0"
     inkscape:window-y="0"
     inkscape:window-maximized="1"
     inkscape:current-layer="svg4" />
  <path
     d="M 176,479 H 80 C 53.5,479 32,457.5 32,431 V 79 C 32,52.5 53.5,31 80,31 h 96 c 26.5,0 48,21.5 48,48 v 352 c 0,26.5 -21.5,48 -48,48 z M 480,431 V 79 C 480,52.5 458.5,31 432,31 h -96 c -26.5,0 -48,21.5 -48,48 v 352 c 0,26.5 21.5,48 48,48 h 96 c 26.5,0 48,-21.5 48,-48 z"
     class=""
     id="path2"
     inkscape:connector-curvature="0"
     style="fill:#ff794b" />
</svg>
