<?xml version="1.0" encoding="UTF-8" standalone="no"?>
<svg
   xmlns:dc="http://purl.org/dc/elements/1.1/"
   xmlns:cc="http://creativecommons.org/ns#"
   xmlns:rdf="http://www.w3.org/1999/02/22-rdf-syntax-ns#"
   xmlns:svg="http://www.w3.org/2000/svg"
   xmlns="http://www.w3.org/2000/svg"
   xmlns:sodipodi="http://sodipodi.sourceforge.net/DTD/sodipodi-0.dtd"
   xmlns:inkscape="http://www.inkscape.org/namespaces/inkscape"
   aria-hidden="true"
   focusable="false"
   data-prefix="fad"
   data-icon="exclamation-triangle"
   role="img"
   viewBox="0 0 576 576"
   class="svg-inline--fa fa-exclamation-triangle fa-w-18 fa-9x"
   version="1.1"
   id="svg8"
   sodipodi:docname="error-icon.svg"
   width="576"
   height="576"
   inkscape:version="0.92.4 5da689c313, 2019-01-14">
  <metadata
     id="metadata14">
    <rdf:RDF>
      <cc:Work
         rdf:about="">
        <dc:format>image/svg+xml</dc:format>
        <dc:type
           rdf:resource="http://purl.org/dc/dcmitype/StillImage" />
        <dc:title></dc:title>
      </cc:Work>
    </rdf:RDF>
  </metadata>
  <defs
     id="defs12" />
  <sodipodi:namedview
     pagecolor="#ffffff"
     bordercolor="#666666"
     borderopacity="1"
     objecttolerance="10"
     gridtolerance="10"
     guidetolerance="10"
     inkscape:pageopacity="0"
     inkscape:pageshadow="2"
     inkscape:window-width="1920"
     inkscape:window-height="999"
     id="namedview10"
     showgrid="false"
     inkscape:zoom="0.4609375"
     inkscape:cx="-135.05085"
     inkscape:cy="238.64407"
     inkscape:window-x="0"
     inkscape:window-y="0"
     inkscape:window-maximized="1"
     inkscape:current-layer="svg8" />
  <g
     class="fa-group"
     id="g6"
     transform="translate(-0.00779121,32)">
    <path
       d="M 569.52,440 329.58,24 C 311.14,-8 264.89,-8 246.42,24 L 6.48,440 c -18.42,31.94 4.64,72 41.57,72 h 479.89 c 36.87,0 60.06,-40 41.58,-72 z M 288,448 a 32,32 0 1 1 32,-32 32,32 0 0 1 -32,32 z m 38.24,-238.41 -12.8,128 A 16,16 0 0 1 297.52,352 h -19 A 16,16 0 0 1 262.6,337.59 l -12.8,-128 A 16,16 0 0 1 265.68,192 h 44.64 a 16,16 0 0 1 15.92,17.59 z"
       class="fa-secondary"
       id="path2"
       style="fill:#990000"
       inkscape:connector-curvature="0" />
    <path
       d="m 310.32,192 h -44.64 a 16,16 0 0 0 -15.92,17.59 l 12.8,128 A 16,16 0 0 0 278.48,352 h 19 a 16,16 0 0 0 15.92,-14.41 l 12.8,-128 A 16,16 0 0 0 310.32,192 Z M 288,384 a 32,32 0 1 0 32,32 32,32 0 0 0 -32,-32 z"
       class="fa-primary"
       id="path4"
       style="fill:none"
       inkscape:connector-curvature="0" />
  </g>
</svg>
